<svg version="1.0" xmlns="http://www.w3.org/2000/svg" width="236" height="45" color-interpolation-filters="sRGB">
    <g fill="#373a6d" class="newinitialsvg-g newinitialsvg">
        <g class="tp-name" transform="translate(0,0)">
            <g transform="translate(0, 0)">
                <rect data-gra="graph-name" x="0" y="0" width="30.12109375" height="30.12109375" fill="none"
                    stroke="#ff8246" stroke-width="2" stroke-linejoin="round"></rect>
                <g data-gra="path-name" fill="#373a6d" transform="translate(3.78125,3.09765625)">
                    <g transform="scale(1)">
                        <path
                            d="M18.26-17.09L19.73-18.65L21.78-16.60L21.68-16.50L12.79-16.50L12.79-8.69L17.68-8.69L18.85-10.16L20.80-8.40L20.80-8.20L12.79-8.20L12.79 0.20L19.92 0.20L21.19-1.37L23.54 0.59L23.44 0.78L2.73 0.78L1.46 1.07L0.98 0.20L11.13 0.20L11.13-8.20L5.86-8.20L4.39-7.91L3.91-8.69L11.13-8.69L11.13-16.50L4.59-16.50L3.32-16.21L2.83-17.09L18.26-17.09Z"
                            transform="translate(-0.9765625, 20.80078125)"></path>
                    </g>
                </g>
            </g>
            <g transform="translate(34.12109375, 0)">
                <rect data-gra="graph-name" x="0" y="0" width="30.12109375" height="30.12109375" fill="none"
                    stroke="#ff8246" stroke-width="2" stroke-linejoin="round"></rect>
                <g data-gra="path-name" fill="#373a6d" transform="translate(3.1953125,3.09765625)">
                    <g transform="scale(1)">
                        <path
                            d="M11.23-20.61L11.23-20.61Q13.77-19.63 13.77-19.43L13.77-19.43Q13.77-19.34 13.57-19.24L13.57-19.24Q13.09-19.14 12.70-18.55L12.70-18.55Q12.60-18.36 12.40-17.97L12.40-17.97Q12.01-17.29 11.72-16.89L11.72-16.89L19.92-16.89L21.09-18.26L23.05-16.50L22.95-16.41L14.75-16.41Q17.19-12.21 24.51-11.13L24.51-11.13L24.51-10.84Q22.75-10.84 21.97-9.47L21.97-9.47Q16.02-12.30 13.96-16.41L13.96-16.41L11.43-16.41Q8.20-10.94 0.98-8.40L0.98-8.40L0.78-8.79Q7.23-11.91 9.57-16.41L9.57-16.41L3.61-16.41L2.44-16.11L2.05-16.89L9.96-16.89Q10.84-18.95 11.23-20.61ZM11.82-10.64L11.82-14.26Q13.87-13.57 13.87-13.48L13.87-13.48Q13.18-12.99 13.18-12.79L13.18-12.79L13.18-10.64L15.82-10.64L16.70-11.82L18.46-10.25L18.46-10.16L13.18-10.16L13.18-6.54Q12.50-5.96 11.82-5.96L11.82-5.96L11.82-10.16L8.20-10.16L7.23-9.86L6.74-10.64L11.82-10.64ZM7.13-9.08L7.13-9.08Q7.62-8.98 8.30-8.79L8.30-8.79Q9.47-8.40 9.38-8.40L9.38-8.40Q9.38-8.30 9.18-8.20L9.18-8.20Q8.69-7.71 8.69-6.93L8.69-6.93Q8.59-6.54 8.59-5.96L8.59-5.96Q8.50-5.37 8.50-4.98L8.50-4.98L16.70-4.98L16.70-9.08Q16.31-9.28 18.95-8.20L18.95-8.20L18.16-7.42L18.16-4.98L20.61-4.98L21.68-6.35L23.93-4.59L23.83-4.39L18.16-4.39L18.16 1.95Q17.09 2.93 16.70 2.64L16.70 2.64L16.70-4.39L8.50-4.39Q8.40 1.07 1.07 2.83L1.07 2.83L1.07 2.44Q6.54 0.49 7.03-4.39L7.03-4.39L3.13-4.39L1.95-4.20L1.37-4.98L7.13-4.98Q7.32-7.52 7.13-9.08Z"
                            transform="translate(-0.78125, 20.80078125)"></path>
                    </g>
                </g>
            </g>
            <g transform="translate(68.2421875, 0)">
                <rect data-gra="graph-name" x="0" y="0" width="30.12109375" height="30.12109375" fill="none"
                    stroke="#ff8246" stroke-width="2" stroke-linejoin="round"></rect>
                <g data-gra="path-name" fill="#373a6d" transform="translate(4.708984375,3.09765625)">
                    <g transform="scale(1)">
                        <path
                            d="M6.54-20.21L6.54-20.21Q8.59-19.14 8.69-18.95L8.69-18.95Q8.69-18.85 8.50-18.85L8.50-18.85Q7.91-18.65 7.62-17.97L7.62-17.97Q7.42-17.58 7.03-16.80L7.03-16.80Q6.45-15.72 5.86-14.65L5.86-14.65L9.08-14.65Q9.86-15.53 9.96-15.63L9.96-15.63Q10.64-15.23 11.72-14.16L11.72-14.16Q11.72-14.16 11.43-13.87L11.43-13.87Q10.64-13.38 10.64-13.28L10.64-13.28L10.74 0.39Q10.25 0.88 9.28 1.27L9.28 1.27L9.28-0.78L4.20-0.78L4.20 0.88Q3.61 1.56 2.54 1.86L2.54 1.86Q2.64-3.42 2.73-6.93L2.73-6.93Q2.73-8.69 2.73-10.55L2.73-10.55Q2.73-12.11 2.73-15.63L2.73-15.63L4.59-14.65L5.27-14.65Q5.76-16.31 6.54-20.21ZM15.72-20.12L15.72-20.12Q16.11-19.92 16.80-19.53L16.80-19.53Q18.26-18.75 18.07-18.75L18.07-18.75Q18.07-18.65 17.77-18.55L17.77-18.55Q17.29-18.26 17.09-18.07L17.09-18.07Q16.89-17.68 16.60-16.99L16.60-16.99Q15.92-15.53 15.63-14.84L15.63-14.84L20.51-14.84Q21.29-15.92 21.48-15.92L21.48-15.92Q21.58-15.92 23.24-14.36L23.24-14.36Q23.14-14.16 22.27-13.48L22.27-13.48Q22.27-0.59 20.90 0.98L20.90 0.98Q19.73 2.25 18.07 2.73L18.07 2.73Q18.07 2.73 18.07 2.64L18.07 2.64Q17.97 1.07 14.55 0L14.55 0L14.65-0.29Q18.26 0.39 18.85 0.20L18.85 0.20Q20.02-0.20 20.41-3.22L20.41-3.22Q20.80-6.25 20.70-14.36L20.70-14.36L15.43-14.36Q13.28-10.55 11.33-8.59L11.33-8.59L11.13-8.79Q14.26-12.89 15.72-20.12ZM9.28-8.30L9.28-14.06L5.27-14.06Q4.10-14.16 4.20-13.09L4.20-13.09L4.20-8.30L9.28-8.30ZM13.77-10.16L14.06-10.35Q16.21-9.18 17.38-7.52L17.38-7.52Q17.97-6.54 17.38-5.57L17.38-5.57Q16.50-4.39 16.02-5.18L16.02-5.18Q15.92-5.27 15.82-5.86L15.82-5.86Q15.43-8.20 13.77-10.16L13.77-10.16ZM9.28-7.71L4.20-7.71L4.20-1.37L9.28-1.37L9.28-7.71Z"
                            transform="translate(-2.5390625, 20.80078125)"></path>
                    </g>
                </g>
            </g>
            <g transform="translate(102.36328125, 0)">
                <rect data-gra="graph-name" x="0" y="0" width="30.12109375" height="30.12109375" fill="none"
                    stroke="#ff8246" stroke-width="2" stroke-linejoin="round"></rect>
                <g data-gra="path-name" fill="#373a6d" transform="translate(3,3.09765625)">
                    <g transform="scale(1)">
                        <path
                            d="M11.82-20.41L11.82-20.41Q13.96-19.24 13.96-19.04L13.96-19.04Q13.96-18.95 13.67-18.85L13.67-18.85Q13.09-18.75 12.89-18.26L12.89-18.26Q16.50-12.01 24.41-10.45L24.41-10.45L24.32-10.25Q22.75-10.16 21.97-8.98L21.97-8.98Q15.14-12.21 12.50-17.97L12.50-17.97Q7.62-10.94 0.39-7.71L0.39-7.71L0.29-8.11Q7.91-12.50 11.82-20.41ZM11.13 2.93L11.33-13.38Q13.67-12.60 13.67-12.50L13.67-12.50Q13.67-12.40 13.28-12.21L13.28-12.21Q12.89-11.91 12.89-11.82L12.89-11.82L12.89 1.95Q12.21 2.64 11.13 2.93L11.13 2.93Z"
                            transform="translate(-0.29296875, 20.80078125)"></path>
                    </g>
                </g>
            </g>
            <g transform="translate(136.484375, 0)">
                <rect data-gra="graph-name" x="0" y="0" width="30.12109375" height="30.12109375" fill="none"
                    stroke="#ff8246" stroke-width="2" stroke-linejoin="round"></rect>
                <g data-gra="path-name" fill="#373a6d" transform="translate(3.048828125,3.09765625)">
                    <g transform="scale(1)">
                        <path
                            d="M11.13-20.02L11.13-20.02Q13.77-18.95 13.87-18.85L13.87-18.85Q13.87-18.75 13.28-18.36L13.28-18.36Q12.89-18.07 12.89-18.07L12.89-18.07Q12.79-16.80 12.89-16.02L12.89-16.02Q14.26-2.93 24.41 0.68L24.41 0.68L24.41 0.98Q22.56 0.88 21.48 1.95L21.48 1.95Q13.28-3.03 12.50-15.53L12.50-15.53Q11.82-1.37 0.59 2.44L0.59 2.44L0.39 2.15Q6.74-1.37 8.59-5.57L8.59-5.57Q10.55-9.18 11.13-20.02Z"
                            transform="translate(-0.390625, 20.80078125)"></path>
                    </g>
                </g>
            </g>
            <g transform="translate(170.60546875, 0)">
                <rect data-gra="graph-name" x="0" y="0" width="30.12109375" height="30.12109375" fill="none"
                    stroke="#ff8246" stroke-width="2" stroke-linejoin="round"></rect>
                <g data-gra="path-name" fill="#373a6d" transform="translate(3.048828125,3.09765625)">
                    <g transform="scale(1)">
                        <path
                            d="M14.55-16.89L14.55-20.80L16.80-19.73Q16.80-19.63 16.21-19.24L16.21-19.24Q15.92-18.95 15.92-18.95L15.92-18.95L15.92-16.89L21.00-16.89L22.07-18.26L24.02-16.50L24.02-16.41L15.92-16.41L15.92-14.36L19.63-14.36Q19.73-14.36 20.02-14.84L20.02-14.84Q20.41-15.33 20.41-15.33L20.41-15.33Q21.48-14.55 22.17-13.96L22.17-13.96Q22.17-13.87 21.88-13.67L21.88-13.67Q21.48-13.38 21.48-13.28L21.48-13.28Q21.48-12.89 21.58-10.55L21.58-10.55Q21.68-7.71 21.68-7.13L21.68-7.13Q21.00-6.64 19.92-6.35L19.92-6.35L19.92-7.71L15.92-7.71L15.92-6.15Q15.53-5.57 14.45-5.57L14.45-5.57L14.55-7.71L10.64-7.71L10.64-6.15Q10.06-5.66 9.18-5.37L9.18-5.37L9.28-15.33L11.04-14.36L14.55-14.36L14.55-16.41L10.06-16.41L8.59-16.21L8.11-16.89L14.55-16.89ZM3.81-13.67L3.81-20.61L6.45-19.34Q6.35-19.34 5.37-18.55L5.37-18.55L5.37-13.67L6.45-13.67L7.42-14.94L9.08-13.18L8.98-13.09L5.37-13.09L5.37 2.44Q4.20 3.03 3.52 3.03L3.52 3.03Q3.81-3.71 3.81-13.09L3.81-13.09L1.86-13.09L0.78-12.79L0.39-13.67L3.81-13.67ZM17.48-19.82L17.58-20.02Q19.92-19.73 20.61-19.14L20.61-19.14Q21.19-17.87 20.12-17.29L20.12-17.29Q20.02-17.29 19.82-17.68L19.82-17.68Q18.95-19.14 17.48-19.82L17.48-19.82ZM14.55-11.33L14.55-13.77L11.52-13.77Q11.43-13.77 11.33-13.77L11.33-13.77Q10.55-13.96 10.64-12.99L10.64-12.99L10.64-11.33L14.55-11.33ZM19.92-13.77L15.92-13.77L15.92-11.33L19.92-11.33L19.92-13.77ZM14.55-8.30L14.55-10.84L10.64-10.84L10.64-8.30L14.55-8.30ZM19.92-10.84L15.92-10.84L15.92-8.30L19.92-8.30L19.92-10.84ZM18.16-4.10L18.16-6.84L20.41-5.86L19.63-5.27L19.63-4.10L21.29-4.10L22.46-5.47L24.41-3.71L24.32-3.52L19.63-3.52L19.63 1.07Q19.34 2.54 17.19 3.13L17.19 3.13Q17.09 3.13 17.09 2.93L17.09 2.93Q16.80 1.46 14.06 0.78L14.06 0.78L14.06 0.49Q18.95 1.37 18.16 0.29L18.16 0.29L18.16-3.52L8.20-3.52L6.74-3.32L6.05-4.10L18.16-4.10ZM10.84-3.13L10.94-3.42Q13.57-1.86 13.67-1.27L13.67-1.27Q13.77 0.29 12.40 0.29L12.40 0.29Q12.11 0.29 12.11-0.39L12.11-0.39Q11.91-2.05 10.84-3.13L10.84-3.13Z"
                            transform="translate(-0.390625, 20.80078125)"></path>
                    </g>
                </g>
            </g>
            <g transform="translate(204.7265625, 0)">
                <rect data-gra="graph-name" x="0" y="0" width="30.12109375" height="30.12109375" fill="none"
                    stroke="#ff8246" stroke-width="2" stroke-linejoin="round"></rect>
                <g data-gra="path-name" fill="#373a6d" transform="translate(3.5859375,3.09765625)">
                    <g transform="scale(1)">
                        <path
                            d="M10.45-20.12L10.55-20.31Q12.40-20.02 13.48-19.24L13.48-19.24Q14.36-18.46 13.28-17.19L13.28-17.19L20.21-17.19Q20.31-17.19 20.70-17.68L20.70-17.68Q21.29-18.26 21.39-18.26L21.39-18.26Q22.95-16.99 23.44-16.02L23.44-16.02Q23.44-16.02 23.24-16.02L23.24-16.02Q22.46-16.11 21.97-15.92L21.97-15.92Q21.00-15.63 19.14-13.96L19.14-13.96L18.95-14.16Q19.63-15.14 20.41-16.60L20.41-16.60L9.96-16.60Q11.72-15.63 11.72-15.43L11.72-15.43Q11.72-15.33 11.52-15.33L11.52-15.33Q10.55-14.84 9.67-13.67L9.67-13.67L15.92-13.67Q16.02-13.77 16.41-14.16L16.41-14.16Q16.80-14.65 16.80-14.65L16.80-14.65Q17.97-14.06 18.95-12.99L18.95-12.99Q18.95-12.89 18.65-12.79L18.65-12.79Q17.87-12.60 17.38-12.21L17.38-12.21Q16.70-11.62 15.23-10.25L15.23-10.25Q14.06-9.28 13.48-8.79L13.48-8.79Q17.38-6.35 23.93-5.86L23.93-5.86L23.93-5.66Q22.17-5.47 21.58-4.30L21.58-4.30Q21.48-4.10 21.48-4.10L21.48-4.10Q17.48-4.98 12.60-8.11L12.60-8.11Q10.64-6.84 7.52-5.18L7.52-5.18L8.30-4.59L15.72-4.59Q15.82-4.59 16.31-5.18L16.31-5.18Q16.60-5.47 16.60-5.47L16.60-5.47Q17.87-4.69 18.55-4.00L18.55-4.00Q18.55-4.00 18.16-3.71L18.16-3.71Q17.58-3.32 17.58-3.22L17.58-3.22Q17.77-0.98 17.77 1.95L17.77 1.95Q16.80 2.73 16.21 2.44L16.21 2.44L16.21 1.27L8.20 1.27L8.20 2.15Q7.62 2.54 6.54 2.83L6.54 2.83Q6.74-3.81 6.74-4.79L6.74-4.79Q6.54-4.69 5.86-4.49L5.86-4.49Q2.64-3.32 1.07-2.93L1.07-2.93L0.98-3.32Q6.64-5.18 11.52-9.08L11.52-9.08Q10.74-9.96 9.47-11.72L9.47-11.72Q9.08-12.30 8.89-12.60L8.89-12.60Q6.25-9.38 3.22-7.42L3.22-7.42L2.93-7.62Q7.81-12.11 9.38-16.60L9.38-16.60L4.39-16.60Q4.39-14.45 3.91-13.87L3.91-13.87Q3.32-13.09 2.44-13.18L2.44-13.18Q1.56-13.38 1.86-14.16L1.86-14.16Q1.95-14.36 2.34-14.84L2.34-14.84Q3.71-16.31 3.81-18.07L3.81-18.07L4.10-18.16Q4.30-17.68 4.30-17.19L4.30-17.19L12.21-17.19Q12.01-18.85 10.45-20.12L10.45-20.12ZM15.63-13.09L15.63-13.09L9.38-13.09L9.38-12.99Q10.64-11.23 12.40-9.67L12.40-9.67Q14.75-11.82 15.63-13.09ZM16.21 0.68L16.21-4.00L9.18-4.00Q8.11-4.10 8.20-3.13L8.20-3.13L8.20 0.68L16.21 0.68Z"
                            transform="translate(-0.9765625, 20.80078125)"></path>
                    </g>
                </g>
            </g>
        </g>
        <g data-gra="path-slogan" fill-rule="" class="tp-slogan" fill="#373a6d" transform="translate(5,37.12109375)">
            <rect x="0" height="1" y="3.2300000190734863" width="23.218826293945312"></rect>
            <rect height="1" y="3.2300000190734863" width="23.218826293945312" x="201.6288299560547"></rect>
            <g transform="translate(26.218826293945312,0)">
                <g transform="scale(1)">
                    <path
                        d="M4.73-5.94L4.69-5.94L3.05 0L2.03 0L0.16-7.15L1.17-7.15L2.54-1.33L2.58-1.33L4.18-7.15L5.23-7.15L6.84-1.33L6.88-1.33L8.20-7.15L9.26-7.15L7.38 0L6.37 0L4.73-5.94ZM15.88 0L15.18-2.07L12.29-2.07L11.55 0L10.57 0L13.27-7.15L14.36-7.15L16.94 0L15.88 0ZM13.73-6.09L12.60-2.93L14.83-2.93L13.77-6.09L13.73-6.09ZM19.97-7.15L23.56-1.37L23.56-7.15L24.50-7.15L24.50 0L23.41 0L19.77-5.78L19.73-5.78L19.73 0L18.80 0L18.80-7.15L19.97-7.15ZM32.34-3.01L30.15-3.01L30.15-3.83L33.27-3.83L33.27 0L32.65 0L32.41-0.90Q31.59 0.08 30.07 0.12L30.07 0.12Q28.63 0.12 27.84-0.63L27.84-0.63Q26.67-1.72 26.71-3.63L26.71-3.63Q26.98-7.19 30.11-7.34L30.11-7.34Q32.77-7.19 33.16-5L33.16-5L32.22-5Q31.83-6.48 30.07-6.52L30.07-6.52Q27.84-6.37 27.73-3.59L27.73-3.59Q27.73-0.63 30.11-0.63L30.11-0.63Q30.97-0.63 31.59-1.09L31.59-1.09Q32.38-1.72 32.34-3.01L32.34-3.01ZM42.23-6.37L40.51-6.37L40.51-4.14L42.23-4.14Q43.75-4.10 43.71-5.31L43.71-5.31Q43.71-6.37 42.23-6.37L42.23-6.37ZM42.62 0L39.53 0L39.53-7.15L42.70-7.15Q44.61-7.07 44.69-5.35L44.69-5.35Q44.69-4.30 43.75-3.87L43.75-3.87Q45.08-3.40 45.08-2.11L45.08-2.11Q44.96-0.08 42.62 0L42.62 0ZM42.38-3.32L40.51-3.32L40.51-0.82L42.58-0.82Q44.06-0.86 44.10-2.11L44.10-2.11Q44.10-3.32 42.38-3.32L42.38-3.32ZM48.27-0.86L52.56-0.86L52.56 0L47.29 0L47.29-7.15L52.48-7.15L52.48-6.33L48.27-6.33L48.27-4.10L52.17-4.10L52.17-3.24L48.27-3.24L48.27-0.86ZM55.98-7.15L59.58-1.37L59.58-7.15L60.52-7.15L60.52 0L59.42 0L55.79-5.78L55.75-5.78L55.75 0L54.81 0L54.81-7.15L55.98-7.15ZM63.59-4.61L62.84-4.61L62.84-7.15L63.59-7.15L63.59-4.61ZM71.11-5.08L71.11-5.08L70.21-5.08Q70.13-6.45 68.41-6.52L68.41-6.52Q66.81-6.48 66.81-5.27L66.81-5.27Q66.81-4.49 67.67-4.38L67.67-4.38L69.70-3.91Q71.30-3.52 71.30-1.95L71.30-1.95Q71.27 0.04 68.49 0.12L68.49 0.12Q66.97 0.12 66.34-0.51L66.34-0.51Q65.56-1.09 65.60-2.30L65.60-2.30L66.54-2.30Q66.58-0.66 68.49-0.63L68.49-0.63Q70.37-0.66 70.41-1.84L70.41-1.84Q70.56-2.81 68.84-3.13L68.84-3.13L67.36-3.44Q65.84-3.87 65.84-5.16L65.84-5.16Q65.95-7.27 68.34-7.34L68.34-7.34Q71.03-7.34 71.11-5.08ZM80.34-6.37L78.38-6.37L78.38-3.87L80.30-3.87Q81.78-3.87 81.78-5.16L81.78-5.16Q81.78-6.33 80.34-6.37L80.34-6.37ZM80.65-3.01L78.38-3.01L78.38 0L77.41 0L77.41-7.15L80.65-7.15Q82.68-7.07 82.76-5.16L82.76-5.16Q82.64-3.09 80.65-3.01L80.65-3.01ZM86.02-0.86L90.32-0.86L90.32 0L85.05 0L85.05-7.15L90.24-7.15L90.24-6.33L86.02-6.33L86.02-4.10L89.93-4.10L89.93-3.24L86.02-3.24L86.02-0.86ZM96.01-3.09L93.66-3.09L93.66 0L92.69 0L92.69-7.15L96.01-7.15Q98.39-7.15 98.39-5.23L98.39-5.23Q98.39-4.06 97.38-3.52L97.38-3.52Q98.23-3.28 98.23-2.15L98.23-2.15L98.31-0.86Q98.27-0.31 98.66-0.16L98.66-0.16L98.66 0L97.45 0Q97.34-0.51 97.30-1.80L97.30-1.80Q97.34-3.09 96.01-3.09L96.01-3.09ZM96.09-6.37L93.66-6.37L93.66-3.91L95.93-3.91Q97.38-3.91 97.38-5.16L97.38-5.16Q97.38-6.37 96.09-6.37L96.09-6.37ZM105.99-5.08L105.99-5.08L105.09-5.08Q105.02-6.45 103.30-6.52L103.30-6.52Q101.70-6.48 101.70-5.27L101.70-5.27Q101.70-4.49 102.55-4.38L102.55-4.38L104.59-3.91Q106.19-3.52 106.19-1.95L106.19-1.95Q106.15 0.04 103.38 0.12L103.38 0.12Q101.85 0.12 101.23-0.51L101.23-0.51Q100.45-1.09 100.48-2.30L100.48-2.30L101.42-2.30Q101.46-0.66 103.38-0.63L103.38-0.63Q105.25-0.66 105.29-1.84L105.29-1.84Q105.45-2.81 103.73-3.13L103.73-3.13L102.24-3.44Q100.72-3.87 100.72-5.16L100.72-5.16Q100.84-7.27 103.22-7.34L103.22-7.34Q105.91-7.34 105.99-5.08ZM114.06-3.55L114.06-3.55Q113.91-6.37 111.56-6.52L111.56-6.52Q109.18-6.41 109.06-3.55L109.06-3.55Q109.18-0.78 111.56-0.66L111.56-0.66Q113.91-0.82 114.06-3.55ZM115.04-3.55L115.04-3.55Q114.80 0 111.56 0.12L111.56 0.12Q108.28 0 108.05-3.55L108.05-3.55Q108.24-7.27 111.56-7.34L111.56-7.34Q114.80-7.23 115.04-3.55ZM118.34-7.15L121.94-1.37L121.94-7.15L122.88-7.15L122.88 0L121.78 0L118.15-5.78L118.11-5.78L118.11 0L117.17 0L117.17-7.15L118.34-7.15ZM130.09 0L129.38-2.07L126.49-2.07L125.75 0L124.77 0L127.47-7.15L128.56-7.15L131.14 0L130.09 0ZM127.94-6.09L126.80-2.93L129.03-2.93L127.98-6.09L127.94-6.09ZM133-7.15L133.98-7.15L133.98-0.86L137.61-0.86L137.61 0L133 0L133-7.15ZM146.02-6.37L144.30-6.37L144.30-4.14L146.02-4.14Q147.54-4.10 147.50-5.31L147.50-5.31Q147.50-6.37 146.02-6.37L146.02-6.37ZM146.41 0L143.32 0L143.32-7.15L146.48-7.15Q148.40-7.07 148.48-5.35L148.48-5.35Q148.48-4.30 147.54-3.87L147.54-3.87Q148.87-3.40 148.87-2.11L148.87-2.11Q148.75-0.08 146.41 0L146.41 0ZM146.17-3.32L144.30-3.32L144.30-0.82L146.37-0.82Q147.85-0.86 147.89-2.11L147.89-2.11Q147.89-3.32 146.17-3.32L146.17-3.32ZM150.96-7.15L151.94-7.15L151.94-0.86L155.57-0.86L155.57 0L150.96 0L150.96-7.15ZM163.17-3.55L163.17-3.55Q163.02-6.37 160.67-6.52L160.67-6.52Q158.29-6.41 158.17-3.55L158.17-3.55Q158.29-0.78 160.67-0.66L160.67-0.66Q163.02-0.82 163.17-3.55ZM164.15-3.55L164.15-3.55Q163.91 0 160.67 0.12L160.67 0.12Q157.39 0 157.16-3.55L157.16-3.55Q157.35-7.27 160.67-7.34L160.67-7.34Q163.91-7.23 164.15-3.55ZM171.63-3.01L169.45-3.01L169.45-3.83L172.57-3.83L172.57 0L171.95 0L171.71-0.90Q170.89 0.08 169.37 0.12L169.37 0.12Q167.92 0.12 167.14-0.63L167.14-0.63Q165.97-1.72 166.01-3.63L166.01-3.63Q166.28-7.19 169.41-7.34L169.41-7.34Q172.06-7.19 172.45-5L172.45-5L171.52-5Q171.13-6.48 169.37-6.52L169.37-6.52Q167.14-6.37 167.02-3.59L167.02-3.59Q167.02-0.63 169.41-0.63L169.41-0.63Q170.27-0.63 170.89-1.09L170.89-1.09Q171.67-1.72 171.63-3.01L171.63-3.01Z"
                        transform="translate(-0.15625, 7.34375)"></path>
                </g>
            </g>
        </g>
    </g>
    <defs v-gra="od"></defs>
</svg>